<?xml version="1.0" encoding="utf-8"?>
<!-- Generator: Adobe Illustrator 27.7.0, SVG Export Plug-In . SVG Version: 6.00 Build 0)  -->
<svg version="1.1" id="Layer_1" xmlns="http://www.w3.org/2000/svg" xmlns:xlink="http://www.w3.org/1999/xlink" x="0px" y="0px"
	 viewBox="0 0 395 272" style="enable-background:new 0 0 395 272;" xml:space="preserve">
<style type="text/css">
	.st0{fill:#5D0096;}
	.st1{fill:#FA4242;}
</style>
<g>
	<path class="st0" d="M236.9,94.5l-40.4,64.7l-66.6,106.6H40c-13.3,0-24.1-7.3-29.7-17.5c-5.6-10.2-6.2-23.1,0.9-34.5L132.7,19.5
		c6.6-10.6,17.7-15.8,28.7-15.8c11.1,0,22,5.2,28.7,15.8L236.9,94.5z"/>
	<path class="st1" d="M381.8,213.9L300.8,84.4c-6.6-10.6-17.7-16-28.8-16s-22.1,5.3-28.8,16l-3.2,5.1l-3.2,5.1l-40.4,64.7
		l66.6,106.6H353c13.3,0,24.1-7.3,29.7-17.5C388.3,238.2,388.8,225.2,381.8,213.9z"/>
</g>
</svg>
